<?xml version="1.0" encoding="iso-8859-1"?>
<!-- Generator: Adobe Illustrator 19.0.0, SVG Export Plug-In . SVG Version: 6.00 Build 0)  -->
<svg version="1.1" id="Layer_1" xmlns="http://www.w3.org/2000/svg" xmlns:xlink="http://www.w3.org/1999/xlink" x="0px" y="0px"
	 viewBox="0 0 512 512" style="enable-background:new 0 0 512 512;" xml:space="preserve">
<g>
	<g>
		<path d="M511.554,249.223c-2.614-93.188-57.418-180.316-140.821-222.213C335.238,9.18,295.705,0,256.001,0
			c-36.019,0-71.938,7.533-104.809,22.294C117.624,37.367,87.532,59.822,63.29,87.487c-24.789,28.292-43.236,61.93-53.526,98.124
			c-24.799,87.228,0.365,184.921,63.641,249.762C121.136,484.284,187.725,512,256.001,512c91.263,0,178.38-51.02,223.224-130.474
			C502.205,340.81,512.833,294.821,511.554,249.223z M18.852,220.529c1.371-9.174,3.274-18.269,5.697-27.222
			c4.822-17.814,11.711-35.063,20.484-51.3c8.666-16.038,19.178-31.066,31.241-44.728c5.367-6.077,11.039-11.885,16.994-17.39
			c0.245-0.227,0.487-0.456,0.732-0.682c47.535,43.585,75.467,104.325,77.635,168.691c0,0-155.278,0-155.28,0
			C15.902,247.899,18.513,222.799,18.852,220.529z M39.339,358.761c-7.084-14.935-12.615-30.602-16.479-46.674
			c-0.943-3.922-8.096-47.988-6.505-47.988c0.054,0,155.28,0,155.28,0c-2.028,60.213-28.745,130.354-77.609,168.42
			C69.985,415.163,51.854,385.145,39.339,358.761z M247.901,495.649c-52.076-1.717-101.271-19.971-141.539-52.252
			c50.009-46.554,79.332-111.027,81.487-179.297h60.052V495.649z M247.901,247.899h-60.052
			c-2.155-68.27-31.478-132.743-81.487-179.297c40.268-32.281,89.463-50.534,141.539-52.251V247.899z M418.003,79.208
			c47.149,43.25,75.489,104.734,77.645,168.691H340.367C342.536,183.533,370.468,122.793,418.003,79.208z M264.102,16.351
			c52.076,1.717,101.272,19.97,141.539,52.251c-50.009,46.554-79.332,111.027-81.487,179.297h-60.052V16.351z M264.102,495.649
			V264.1h60.052c2.155,68.271,31.478,132.744,81.487,179.297C365.374,475.679,316.179,493.932,264.102,495.649z M489.96,308.571
			c-3.355,14.942-8.146,29.561-14.287,43.59c-9.716,22.197-23.627,43.846-40.005,62.531c-5.414,6.177-11.098,12.031-16.991,17.473
			c-0.225,0.208-0.448,0.419-0.674,0.626c-47.535-43.585-75.467-104.325-77.636-168.692c0,0,155.275,0,155.28,0
			C496.995,264.1,490.778,304.925,489.96,308.571z"/>
	</g>
</g>
<g>
</g>
<g>
</g>
<g>
</g>
<g>
</g>
<g>
</g>
<g>
</g>
<g>
</g>
<g>
</g>
<g>
</g>
<g>
</g>
<g>
</g>
<g>
</g>
<g>
</g>
<g>
</g>
<g>
</g>
</svg>
